# xmcd CD database file
#
# Track frame offsets:
#	150
#	26227
#	39910
#	54539
#	75025
#	99755
#	115408
#	128112
#	140026
#	165880
#	180794
#	194424
#	217516
#	231724
#	244493
#
# Disc length: 3585 seconds
#
# Revision: 0
# Processed by: cddbd v1.5.2PL0 Copyright (c) Steve Scherf et al.
# Submitted via: CDex 1.70beta2
#
DISCID=bc0dff0f
DTITLE=Chet Baker - This Is Gold CD 2
DYEAR=1900
DGENRE=Jazz
TTITLE0=My Old Flame
TTITLE1=Imagination
TTITLE2=I'm Glad There Is You
TTITLE3=Lullaby Of The Leaves
TTITLE4=Come Out Wherever You Are
TTITLE5=Pro Defunctus
TTITLE6=A Dandy Line
TTITLE7=Carson City Stage
TTITLE8=Half NElson
TTITLE9=Moon Love
TTITLE10=Bea's Flat
TTITLE11=Moonlight In Vermont
TTITLE12=Ergo
TTITLE13=Little Old Lady
TTITLE14=Gone With The Wind
EXTD=
EXTT0=
EXTT1=
EXTT2=
EXTT3=
EXTT4=
EXTT5=
EXTT6=
EXTT7=
EXTT8=
EXTT9=
EXTT10=
EXTT11=
EXTT12=
EXTT13=
EXTT14=
PLAYORDER=
